<svg width="128" height="22" viewBox="0 0 128 22" fill="none" xmlns="http://www.w3.org/2000/svg">
<path d="M11.1948 15.7773C11.1948 15.0026 10.9214 14.4102 10.3745 14C9.82764 13.5807 8.84326 13.1432 7.42139 12.6875C5.99951 12.2227 4.87386 11.7669 4.04443 11.3203C1.78402 10.099 0.653809 8.45378 0.653809 6.38477C0.653809 5.30924 0.95459 4.35221 1.55615 3.51367C2.16683 2.66602 3.03727 2.00521 4.16748 1.53125C5.3068 1.05729 6.58285 0.820312 7.99561 0.820312C9.41748 0.820312 10.6844 1.08008 11.7964 1.59961C12.9084 2.11003 13.7697 2.83464 14.3804 3.77344C15.0002 4.71224 15.3101 5.77865 15.3101 6.97266H11.2085C11.2085 6.0612 10.9214 5.35482 10.3472 4.85352C9.77295 4.3431 8.96631 4.08789 7.92725 4.08789C6.92464 4.08789 6.14535 4.30208 5.58936 4.73047C5.03337 5.14974 4.75537 5.70573 4.75537 6.39844C4.75537 7.04557 5.07894 7.58789 5.72607 8.02539C6.38232 8.46289 7.34391 8.87305 8.61084 9.25586C10.9442 9.95768 12.644 10.8281 13.7104 11.8672C14.7769 12.9062 15.3101 14.2005 15.3101 15.75C15.3101 17.4727 14.6584 18.8262 13.355 19.8105C12.0516 20.7858 10.297 21.2734 8.09131 21.2734C6.56006 21.2734 5.16553 20.9954 3.90771 20.4395C2.6499 19.8743 1.68831 19.1042 1.02295 18.1289C0.366699 17.1536 0.0385742 16.0234 0.0385742 14.7383H4.15381C4.15381 16.9349 5.46631 18.0332 8.09131 18.0332C9.06657 18.0332 9.82764 17.8372 10.3745 17.4453C10.9214 17.0443 11.1948 16.4883 11.1948 15.7773ZM21.5444 6.20703L21.6675 7.86133C22.7157 6.57617 24.133 5.93359 25.9194 5.93359C27.8244 5.93359 29.1323 6.68555 29.8433 8.18945C30.8823 6.68555 32.3634 5.93359 34.2866 5.93359C35.8908 5.93359 37.0848 6.40299 37.8687 7.3418C38.6525 8.27148 39.0444 9.67513 39.0444 11.5527V21H35.0796V11.5664C35.0796 10.7279 34.9155 10.1172 34.5874 9.73438C34.2593 9.34245 33.6805 9.14648 32.8511 9.14648C31.6662 9.14648 30.8459 9.71159 30.3901 10.8418L30.4038 21H26.4526V11.5801C26.4526 10.7233 26.284 10.1035 25.9468 9.7207C25.6095 9.33789 25.0353 9.14648 24.2241 9.14648C23.103 9.14648 22.2918 9.61133 21.7905 10.541V21H17.8394V6.20703H21.5444ZM50.6655 21C50.4832 20.6445 50.3511 20.2025 50.269 19.6738C49.312 20.7402 48.0679 21.2734 46.5366 21.2734C45.0874 21.2734 43.8843 20.8542 42.9272 20.0156C41.9793 19.1771 41.5054 18.1198 41.5054 16.8438C41.5054 15.276 42.0841 14.0729 43.2417 13.2344C44.4084 12.3958 46.09 11.972 48.2866 11.9629H50.105V11.1152C50.105 10.4316 49.9272 9.88477 49.5718 9.47461C49.2254 9.06445 48.674 8.85938 47.9175 8.85938C47.2521 8.85938 46.728 9.01888 46.3452 9.33789C45.9715 9.6569 45.7847 10.0944 45.7847 10.6504H41.8335C41.8335 9.79362 42.0978 9.00065 42.6265 8.27148C43.1551 7.54232 43.9025 6.97266 44.8687 6.5625C45.8348 6.14323 46.9194 5.93359 48.1226 5.93359C49.9455 5.93359 51.3901 6.39388 52.4565 7.31445C53.5321 8.22591 54.0698 9.51107 54.0698 11.1699V17.582C54.0789 18.9857 54.2749 20.0475 54.6577 20.7676V21H50.6655ZM47.3979 18.252C47.9813 18.252 48.519 18.1243 49.0112 17.8691C49.5034 17.6048 49.868 17.2539 50.105 16.8164V14.2734H48.6284C46.6506 14.2734 45.5978 14.957 45.4702 16.3242L45.4565 16.5566C45.4565 17.0488 45.6297 17.4544 45.9761 17.7734C46.3224 18.0924 46.7964 18.252 47.3979 18.252ZM65.4175 9.91211C64.8797 9.83919 64.4058 9.80273 63.9956 9.80273C62.5008 9.80273 61.521 10.3086 61.0562 11.3203V21H57.105V6.20703H60.8374L60.9468 7.9707C61.7397 6.61263 62.8381 5.93359 64.2417 5.93359C64.6792 5.93359 65.0894 5.99284 65.4722 6.11133L65.4175 9.91211ZM72.7456 2.57031V6.20703H75.2749V9.10547H72.7456V16.4883C72.7456 17.0352 72.8504 17.4271 73.0601 17.6641C73.2697 17.901 73.6707 18.0195 74.2632 18.0195C74.7007 18.0195 75.0881 17.9876 75.4253 17.9238V20.918C74.6506 21.1549 73.853 21.2734 73.0327 21.2734C70.2619 21.2734 68.8491 19.8743 68.7944 17.0762V9.10547H66.6343V6.20703H68.7944V2.57031H72.7456Z" fill="#FF8D8D"/>
<path d="M81.8545 21.2051C80.9111 21.2051 80.0566 20.9727 79.291 20.5078C78.5322 20.043 77.9409 19.397 77.5171 18.5698C77.0933 17.7358 76.8813 16.8027 76.8813 15.7705V15.3296C76.8813 14.2632 77.0864 13.3027 77.4966 12.4482C77.9136 11.5938 78.4912 10.9238 79.2295 10.4385C79.9678 9.94629 80.7676 9.7002 81.6289 9.7002C82.9756 9.7002 84.042 10.1616 84.8281 11.0845C85.6211 12.0005 86.0176 13.2549 86.0176 14.8477V15.5347H78.1016V15.7705C78.1016 17.0283 78.4604 18.0776 79.1782 18.9185C79.9028 19.7524 80.812 20.1694 81.9058 20.1694C82.562 20.1694 83.1396 20.0498 83.6387 19.8105C84.1445 19.5713 84.6025 19.1885 85.0127 18.6621L85.7817 19.2466C84.8794 20.5522 83.5703 21.2051 81.8545 21.2051ZM81.6289 10.7461C80.7061 10.7461 79.9268 11.0845 79.291 11.7612C78.6621 12.438 78.2793 13.3472 78.1426 14.4888H84.7974V14.3555C84.7632 13.2891 84.459 12.4209 83.8848 11.751C83.3105 11.0811 82.5586 10.7461 81.6289 10.7461ZM89.5757 9.90527L89.6167 11.8022C90.0337 11.1187 90.5532 10.5991 91.1753 10.2437C91.7974 9.88135 92.4844 9.7002 93.2363 9.7002C94.4258 9.7002 95.311 10.0352 95.8921 10.7051C96.4731 11.375 96.7671 12.3799 96.7739 13.7197V21H95.5537V13.7095C95.5469 12.7183 95.335 11.98 94.918 11.4946C94.5078 11.0093 93.8481 10.7666 92.939 10.7666C92.1802 10.7666 91.5068 11.0059 90.9189 11.4844C90.3379 11.9561 89.9072 12.5952 89.627 13.4019V21H88.4067V9.90527H89.5757ZM106.956 21C106.833 20.6514 106.754 20.1353 106.72 19.4517C106.29 20.0122 105.739 20.4463 105.069 20.7539C104.406 21.0547 103.702 21.2051 102.957 21.2051C101.891 21.2051 101.026 20.9077 100.363 20.313C99.7065 19.7183 99.3784 18.9663 99.3784 18.0571C99.3784 16.9771 99.8262 16.1226 100.722 15.4937C101.624 14.8647 102.878 14.5503 104.485 14.5503H106.71V13.2891C106.71 12.4961 106.464 11.874 105.972 11.4229C105.486 10.9648 104.775 10.7358 103.839 10.7358C102.984 10.7358 102.277 10.9546 101.716 11.3921C101.156 11.8296 100.875 12.356 100.875 12.9712L99.645 12.9609C99.645 12.0791 100.055 11.3169 100.875 10.6743C101.696 10.0249 102.704 9.7002 103.9 9.7002C105.138 9.7002 106.112 10.0112 106.823 10.6333C107.541 11.2485 107.91 12.1099 107.93 13.2173V18.4673C107.93 19.5405 108.043 20.3438 108.269 20.877V21H106.956ZM103.101 20.1182C103.921 20.1182 104.652 19.9199 105.295 19.5234C105.944 19.127 106.416 18.5972 106.71 17.9341V15.4937H104.516C103.292 15.5073 102.335 15.7329 101.645 16.1704C100.954 16.6011 100.609 17.1958 100.609 17.9546C100.609 18.5767 100.838 19.0928 101.296 19.5029C101.761 19.9131 102.362 20.1182 103.101 20.1182ZM112.38 9.90527L112.421 11.8022C112.838 11.1187 113.358 10.5991 113.98 10.2437C114.602 9.88135 115.289 9.7002 116.041 9.7002C117.23 9.7002 118.116 10.0352 118.697 10.7051C119.278 11.375 119.572 12.3799 119.579 13.7197V21H118.358V13.7095C118.352 12.7183 118.14 11.98 117.723 11.4946C117.312 11.0093 116.653 10.7666 115.744 10.7666C114.985 10.7666 114.312 11.0059 113.724 11.4844C113.143 11.9561 112.712 12.5952 112.432 13.4019V21H111.211V9.90527H112.38ZM124.665 7.06494V9.90527H126.961V10.9102H124.665V18.3032C124.665 18.9185 124.774 19.3765 124.993 19.6772C125.218 19.978 125.591 20.1284 126.11 20.1284C126.315 20.1284 126.647 20.0942 127.105 20.0259L127.156 21.0308C126.835 21.147 126.397 21.2051 125.844 21.2051C125.003 21.2051 124.391 20.9624 124.008 20.4771C123.625 19.9849 123.434 19.2637 123.434 18.3135V10.9102H121.394V9.90527H123.434V7.06494H124.665Z" fill="#5DC399"/>
</svg>
